C:\Users\israe\Dropbox\PhDWork\ExperimentalData\subject7\145\P7S145W12_filtered35.mot
nRows=6
nColumns=28

name C:\Users\israe\Dropbox\PhDWork\ExperimentalData\subject7\145\P7S145W12_filtered35.mot
datacolumns 28
datarows 6
range 1.1600000000 1.1650000000
endheader
time	ground_force_1_vx	ground_force_1_vy	ground_force_1_vz	ground_force_1_px	ground_force_1_py	ground_force_1_pz	ground_moment_1_mx	ground_moment_1_my	ground_moment_1_mz	ground_force_2_vx	ground_force_2_vy	ground_force_2_vz	ground_force_2_px	ground_force_2_py	ground_force_2_pz	ground_moment_2_mx	ground_moment_2_my	ground_moment_2_mz	ground_force_3_vx	ground_force_3_vy	ground_force_3_vz	ground_force_3_px	ground_force_3_py	ground_force_3_pz	ground_moment_3_mx	ground_moment_3_my	ground_moment_3_mz
        1.1600000000	       -0.1103100371	        0.0000000000	        0.3333917093	        0.1988394910	        0.0000558755	       -0.3004071320	        0.0302556687	       -0.0113512533	       -0.0008561812	        3.3353896840	      777.6323259430	     -118.5815387978	        0.2029003487	       -0.0000795827	        0.4543649445	        8.9525192182	      -11.5081251085	      -58.5758447145	       -0.0000000000	        0.0000000000	       -0.0000000000	        0.2076431971	        0.0000770316	        1.3583900146	       -0.0000000000	        0.0000000000	       -0.0000000000	
        1.1610000000	       -0.1625287116	        0.0000000000	        0.5056271877	        0.1988394910	        0.0000558755	       -0.3004071320	        0.0753052546	       -0.0168612142	        0.0012929711	        3.0393055714	      775.8501596042	     -119.9614637300	        0.2029003487	       -0.0000795827	        0.4543649445	        9.1392049091	      -11.5269734661	      -58.3789276963	       -0.0000000000	        0.0000000000	       -0.0000000000	        0.2076431971	        0.0000770316	        1.3583900146	       -0.0000000000	        0.0000000000	       -0.0000000000	
        1.1620000000	       -0.2244610340	        0.0000000000	        0.7127136803	        0.1988394910	        0.0000558755	       -0.3004071320	        0.1347293290	       -0.0234227584	        0.0043402430	        2.7600748790	      773.9564584239	     -121.3383922995	        0.2029003487	       -0.0000795827	        0.4543649445	        9.3254858350	      -11.5431908180	      -58.1747696940	       -0.0000000000	        0.0000000000	       -0.0000000000	        0.2076431971	        0.0000770316	        1.3583900146	       -0.0000000000	        0.0000000000	       -0.0000000000	
        1.1630000000	       -0.2949865295	        0.0000000000	        0.9520271354	        0.1988394910	        0.0000558755	       -0.3004071320	        0.2098457487	       -0.0309278049	        0.0084294381	        2.4957197392	      771.9396996460	     -122.7110927045	        0.2029003487	       -0.0000795827	        0.4543649445	        9.5111767286	      -11.5569764017	      -57.9633866444	       -0.0000000000	        0.0000000000	       -0.0000000000	        0.2076431971	        0.0000770316	        1.3583900146	       -0.0000000000	        0.0000000000	       -0.0000000000	
        1.1640000000	       -0.3716606514	        0.0000000000	        1.2167249761	        0.1988394910	        0.0000558755	       -0.3004071320	        0.3011471291	       -0.0391299686	        0.0136762225	        2.2440805328	      769.7906501840	     -124.0784842915	        0.2029003487	       -0.0000795827	        0.4543649445	        9.6959837113	      -11.5683201786	      -57.7449832650	       -0.0000000000	        0.0000000000	       -0.0000000000	        0.2076431971	        0.0000770316	        1.3583900146	       -0.0000000000	        0.0000000000	       -0.0000000000	
        1.1650000000	       -0.4503136466	        0.0000000000	        1.4943807333	        0.1988394910	        0.0000558755	       -0.3004071320	        0.4078646373	       -0.0476018338	        0.0201441219	        2.0027208102	      767.5038113806	     -125.4404420024	        0.2029003487	       -0.0000795827	        0.4543649445	        9.8797771027	      -11.5771222892	      -57.5198545542	       -0.0000000000	        0.0000000000	       -0.0000000000	        0.2076431971	        0.0000770316	        1.3583900146	       -0.0000000000	       -0.0000000000	       -0.0000000000	
